<svg id="Ebene_5" data-name="Ebene 5" xmlns="http://www.w3.org/2000/svg" viewBox="0 0 666.53 640.85"><defs><style>.cls-1{opacity:0.75;}.cls-2{fill:#3a3a3a;}.cls-3{fill:#006838;}.cls-4{fill:#00a651;}.cls-5{fill:#90ba54;}</style></defs><title>Protokkoli</title><g class="cls-1"><circle class="cls-2" cx="455.39" cy="266.06" r="45.79" transform="translate(-80.52 554.7) rotate(-45)"/><path class="cls-2" d="M409.1,266.06a51.69,51.69,0,0,1,27.42-45.56,51,51,0,0,1,18.87-5.79,51.88,51.88,0,0,1,20.43,2,51.23,51.23,0,0,1,31.35,27.86,52.21,52.21,0,0,1,0,42.9A51.4,51.4,0,0,1,494.29,305a50.81,50.81,0,0,1-18.47,10.41,51.88,51.88,0,0,1-20.43,2,50.84,50.84,0,0,1-18.87-5.78,51.73,51.73,0,0,1-27.42-45.56Zm1,0a41.37,41.37,0,0,0,3.77,17.2,40.37,40.37,0,0,0,10.47,13.85,39.93,39.93,0,0,0,14.88,8,40.63,40.63,0,0,0,16.17,1.19A39.62,39.62,0,0,0,470,301.37a41.15,41.15,0,0,0,11.25-9.45A40.6,40.6,0,0,0,470,230.75a39.63,39.63,0,0,0-14.62-4.94,40.64,40.64,0,0,0-16.17,1.2,39.78,39.78,0,0,0-14.88,8,40.27,40.27,0,0,0-10.47,13.85A41.34,41.34,0,0,0,410.1,266.06Z" transform="translate(-25.77 154.77)"/><circle class="cls-2" cx="275.61" cy="265.06" r="45.79" transform="translate(-132.47 427.28) rotate(-45)"/><path class="cls-2" d="M321.9,265.06a51.73,51.73,0,0,1-27.42,45.56,50.84,50.84,0,0,1-18.87,5.78,51.88,51.88,0,0,1-20.43-2A50.81,50.81,0,0,1,236.71,304a51.4,51.4,0,0,1-12.88-17.44,52.23,52.23,0,0,1,0-42.91,51,51,0,0,1,70.65-24.1,51.69,51.69,0,0,1,27.42,45.56Zm-1,0a41.3,41.3,0,0,0-3.77-17.2A40.18,40.18,0,0,0,291.78,226a40.83,40.83,0,0,0-16.17-1.19A39.74,39.74,0,0,0,261,229.75a41.22,41.22,0,0,0-11.24,9.44,40.52,40.52,0,0,0,0,51.73A41.22,41.22,0,0,0,261,300.36a39.74,39.74,0,0,0,14.63,4.94,40.65,40.65,0,0,0,16.17-1.19,40.12,40.12,0,0,0,25.35-21.85A41.37,41.37,0,0,0,320.9,265.06Z" transform="translate(-25.77 154.77)"/><circle class="cls-2" cx="337.52" cy="234.66" r="183.16"/><path class="cls-2" d="M487.92,390.69a68.82,68.82,0,0,0-2.86-16.12c-8.18-38-30.18-113.51-30.18-113.51h-.09A45.78,45.78,0,0,0,364,255.72l-.42,0H363a45.79,45.79,0,0,0-91.26,5.36h0s-22,75.54-30.2,113.54a69.09,69.09,0,0,0-2.83,16,20,20,0,0,0-.12,3.88c0,50.58,55.84,91.59,124.73,91.59S488,445.07,488,394.49v0A20.22,20.22,0,0,0,487.92,390.69Z" transform="translate(-25.77 154.77)"/><path class="cls-2" d="M455.27,394.81a37,37,0,0,0-2.09-10.07c-9.11,25.79-45.89,45.08-89.89,45.08s-80.77-19.29-89.89-45.08a37.73,37.73,0,0,0-2.08,10,10.7,10.7,0,0,0-.09,2.44c0,31.79,41.22,57.55,92.06,57.55S455.36,429,455.36,397.2v0A11.31,11.31,0,0,0,455.27,394.81Z" transform="translate(-25.77 154.77)"/><circle class="cls-2" cx="238.51" cy="-40.52" r="45.79" transform="translate(-9.63 209.55) rotate(-13.56)"/><path class="cls-2" d="M271.24-7.79a51.72,51.72,0,0,1-32.73,15A52.24,52.24,0,0,1,219.64,5,50.78,50.78,0,0,1,202.2-4.22a51.81,51.81,0,0,1-13-15.88,50.88,50.88,0,0,1-5.7-20.42A51.4,51.4,0,0,1,186.73-62a52.53,52.53,0,0,1,11.9-18.44,52.59,52.59,0,0,1,18.43-11.9,51.44,51.44,0,0,1,21.45-3.23,51.21,51.21,0,0,1,20.42,5.7,51.81,51.81,0,0,1,15.88,13,50.87,50.87,0,0,1,9.26,17.44,52.26,52.26,0,0,1,2.11,18.87A51.71,51.71,0,0,1,271.24-7.79Zm-.71-.7A41.41,41.41,0,0,0,280-23.32a40.39,40.39,0,0,0,2.39-17.2,40.11,40.11,0,0,0-4.86-16.18A40.64,40.64,0,0,0,267-69a39.8,39.8,0,0,0-13.83-6.85,41.15,41.15,0,0,0-14.62-1.27,40.74,40.74,0,0,0-24.89,11.69,40.76,40.76,0,0,0-11.69,24.89,41,41,0,0,0,1.27,14.63,39.54,39.54,0,0,0,6.85,13.83A40.61,40.61,0,0,0,222.33-1.47a39.86,39.86,0,0,0,16.18,4.86A40.39,40.39,0,0,0,255.71,1,41.4,41.4,0,0,0,270.53-8.49Z" transform="translate(-25.77 154.77)"/><circle class="cls-2" cx="462.31" cy="114.24" r="45.79"/><path class="cls-2" d="M455.34-7.79A51.76,51.76,0,0,1,440.4-40.52a52,52,0,0,1,2.12-18.87,51,51,0,0,1,9.25-17.44,51.85,51.85,0,0,1,15.89-13,51.16,51.16,0,0,1,20.42-5.7,51.4,51.4,0,0,1,21.44,3.23A52.49,52.49,0,0,1,528-80.4,52.42,52.42,0,0,1,539.86-62a51.4,51.4,0,0,1,3.23,21.44,51.06,51.06,0,0,1-5.71,20.42,51.67,51.67,0,0,1-13,15.88A50.82,50.82,0,0,1,507,5a52.26,52.26,0,0,1-18.87,2.12A51.77,51.77,0,0,1,455.34-7.79Zm.71-.7A41.44,41.44,0,0,0,470.88,1a40.39,40.39,0,0,0,17.2,2.39,40,40,0,0,0,16.18-4.86,40.73,40.73,0,0,0,12.28-10.59,39.89,39.89,0,0,0,6.85-13.83,41.23,41.23,0,0,0,1.27-14.63A40.76,40.76,0,0,0,513-65.41,40.76,40.76,0,0,0,488.08-77.1a41.21,41.21,0,0,0-14.63,1.27A39.89,39.89,0,0,0,459.62-69,40.61,40.61,0,0,0,449-56.7a39.76,39.76,0,0,0-4.86,16.18,40.39,40.39,0,0,0,2.38,17.2A41.69,41.69,0,0,0,456.05-8.49Z" transform="translate(-25.77 154.77)"/><circle class="cls-2" cx="363.29" cy="5.26" r="114.48" transform="translate(76.91 413.19) rotate(-45)"/><path class="cls-2" d="M495.33,5.26a119.58,119.58,0,0,1-14.19,48.82A124.39,124.39,0,0,1,449.6,91.57a141.82,141.82,0,0,1-41.11,22.8,144.85,144.85,0,0,1-45.2,8.31,127,127,0,0,1-45.59-7.35,129.72,129.72,0,0,1-40.77-23.71,132,132,0,0,1-16.84-17.39,134.17,134.17,0,0,1-13.53-20.61A133.4,133.4,0,0,1,237,30.37a131.21,131.21,0,0,1-5-25.11,133,133,0,0,1,5.36-52.18,133.24,133.24,0,0,1,10.71-24.84,135.75,135.75,0,0,1,15.77-22.45,134.67,134.67,0,0,1,44.39-33.47,137,137,0,0,1,55.07-12.87A127.11,127.11,0,0,1,419-129.26,126.76,126.76,0,0,1,463.66-95.1a138.5,138.5,0,0,1,15.42,23A139.48,139.48,0,0,1,489.44-47,145.42,145.42,0,0,1,495.33,5.26Zm-35.13,0A84.47,84.47,0,0,0,448.69-30.1a90.28,90.28,0,0,0-23.87-26.17,109.07,109.07,0,0,0-29.63-15.5,113,113,0,0,0-31.9-6.11,93.45,93.45,0,0,0-32.55,4.53,95.14,95.14,0,0,0-29.88,16.18,93.48,93.48,0,0,0-12.7,12.25,94,94,0,0,0-10.47,14.73A94.6,94.6,0,0,0,265.64,5.26a97.91,97.91,0,0,0,2.84,39.27,96,96,0,0,0,7.64,19A98.24,98.24,0,0,0,287.76,80.8a100.85,100.85,0,0,0,33.5,25.94,103.23,103.23,0,0,0,42,10.05,92.45,92.45,0,0,0,75.59-35.95A103.12,103.12,0,0,0,457,44.07,110.34,110.34,0,0,0,460.2,5.26Z" transform="translate(-25.77 154.77)"/><circle class="cls-2" cx="546.45" cy="79.89" r="114.48" transform="translate(77.79 564.57) rotate(-45)"/><path class="cls-2" d="M546.45,211.93a119.58,119.58,0,0,1-48.81-14.19,124.43,124.43,0,0,1-37.5-31.54,141.79,141.79,0,0,1-22.79-41.11A144.86,144.86,0,0,1,429,79.89a127,127,0,0,1,7.35-45.59A129.75,129.75,0,0,1,460.1-6.47a131.38,131.38,0,0,1,17.39-16.84,131.55,131.55,0,0,1,43.85-23.12,130.43,130.43,0,0,1,25.11-5,131.12,131.12,0,0,1,77,16.06,135.68,135.68,0,0,1,22.44,15.77,134.67,134.67,0,0,1,33.47,44.39,137,137,0,0,1,12.88,55.07,125.88,125.88,0,0,1-45.45,100.37A137.45,137.45,0,0,1,598.72,206,145.23,145.23,0,0,1,546.45,211.93Zm0-35.12a84.67,84.67,0,0,0,35.37-11.52A90.1,90.1,0,0,0,608,141.42a109.11,109.11,0,0,0,15.51-29.63,113,113,0,0,0,6.1-31.9,93.67,93.67,0,0,0-4.52-32.55,95,95,0,0,0-16.19-29.87A93,93,0,0,0,596.63,4.76a96.09,96.09,0,0,0-50.18-22.52,97.85,97.85,0,0,0-39.26,2.84,96.3,96.3,0,0,0-19,7.64,98.71,98.71,0,0,0-17.3,11.64A100.72,100.72,0,0,0,445,37.86a103.24,103.24,0,0,0-10.06,42,92.45,92.45,0,0,0,35.95,75.59,103.27,103.27,0,0,0,36.78,18.11A110.55,110.55,0,0,0,546.45,176.81Z" transform="translate(-25.77 154.77)"/><circle class="cls-2" cx="180.13" cy="79.89" r="114.48" transform="translate(-29.51 305.54) rotate(-45)"/><path class="cls-2" d="M180.13-52.15A119.73,119.73,0,0,1,229-38,124.53,124.53,0,0,1,266.44-6.42a141.87,141.87,0,0,1,22.8,41.12,144.84,144.84,0,0,1,8.31,45.19,127.06,127.06,0,0,1-7.35,45.6,129.38,129.38,0,0,1-23.71,40.76A132.07,132.07,0,0,1,249.1,183.1a131.47,131.47,0,0,1-43.86,23.12,130.43,130.43,0,0,1-25.11,5,131,131,0,0,1-77-16.06,135.75,135.75,0,0,1-22.45-15.77A134.77,134.77,0,0,1,47.19,135,137,137,0,0,1,34.32,79.89,125.76,125.76,0,0,1,79.77-20.47a137.89,137.89,0,0,1,23-15.42,139.52,139.52,0,0,1,25.13-10.37A145.64,145.64,0,0,1,180.13-52.15Zm0,35.13A84.61,84.61,0,0,0,144.77-5.51,90.42,90.42,0,0,0,118.6,18.36,109.27,109.27,0,0,0,103.1,48,112.88,112.88,0,0,0,97,79.89a93.42,93.42,0,0,0,4.53,32.55,95.14,95.14,0,0,0,16.18,29.88A93.55,93.55,0,0,0,130,155a96.09,96.09,0,0,0,50.18,22.52,97.91,97.91,0,0,0,39.27-2.84,95.4,95.4,0,0,0,19-7.65,98.74,98.74,0,0,0,17.31-11.63,100.79,100.79,0,0,0,25.94-33.51,103.19,103.19,0,0,0,10.05-42,92.42,92.42,0,0,0-36-75.58A104.73,104.73,0,0,0,238-6.72a105.92,105.92,0,0,0-19.05-7.09A110.81,110.81,0,0,0,180.13-17Z" transform="translate(-25.77 154.77)"/><circle class="cls-2" cx="238.51" cy="194.37" r="68.69" transform="translate(-93.36 380.34) rotate(-45)"/><path class="cls-2" d="M287.43,145.45a75,75,0,0,1,15.39,22.28,76.13,76.13,0,0,1,3,54.54,74.66,74.66,0,0,1-14.05,25.41,75,75,0,0,1-84.36,21.68,76.09,76.09,0,0,1-48.85-75,75.56,75.56,0,0,1,128.83-48.92Zm-.71.7a63.22,63.22,0,0,0-22.28-14.39,61.51,61.51,0,0,0-69.77,18.78,61.2,61.2,0,0,0-11.14,21.05,62.81,62.81,0,0,0,3,44.3A62.06,62.06,0,0,0,217,246.31a62.94,62.94,0,0,0,44.29,3,61.19,61.19,0,0,0,21.06-11.15,61.64,61.64,0,0,0,18.78-69.77A63.33,63.33,0,0,0,286.72,146.15Z" transform="translate(-25.77 154.77)"/><circle class="cls-2" cx="488.08" cy="194.37" r="68.69" transform="translate(-20.26 556.82) rotate(-45)"/><path class="cls-2" d="M439.16,145.45a75,75,0,0,1,22.28-15.4A76.27,76.27,0,0,1,516,127a74.82,74.82,0,0,1,25.41,14,75,75,0,0,1,21.68,84.37,76.43,76.43,0,0,1-43.93,43.93,74.91,74.91,0,0,1-84.37-21.68,74.82,74.82,0,0,1-14-25.41,76.27,76.27,0,0,1,3-54.54A75,75,0,0,1,439.16,145.45Zm.7.7a63.31,63.31,0,0,0-14.39,22.28,61.49,61.49,0,0,0,18.78,69.77,61.06,61.06,0,0,0,21.05,11.15,63,63,0,0,0,44.3-3A62.06,62.06,0,0,0,540,215.89a63,63,0,0,0,3-44.3,61.06,61.06,0,0,0-11.15-21.05,61.64,61.64,0,0,0-69.77-18.78A63.31,63.31,0,0,0,439.86,146.15Z" transform="translate(-25.77 154.77)"/><circle class="cls-2" cx="363.29" cy="148.58" r="114.48" transform="translate(-24.43 455.17) rotate(-45)"/><path class="cls-2" d="M495.33,148.58a119.63,119.63,0,0,1-14.19,48.82,124.51,124.51,0,0,1-31.54,37.49,141.82,141.82,0,0,1-41.11,22.8,144.85,144.85,0,0,1-45.2,8.31,127,127,0,0,1-45.59-7.35,129.72,129.72,0,0,1-40.77-23.71,131.47,131.47,0,0,1-16.84-17.4A131.29,131.29,0,0,1,237,173.69a131.21,131.21,0,0,1-5-25.11,131.12,131.12,0,0,1,16.07-77,133.63,133.63,0,0,1,60.16-55.92A137,137,0,0,1,363.29,2.77,125.83,125.83,0,0,1,463.66,48.21a137.38,137.38,0,0,1,25.78,48.11A145.4,145.4,0,0,1,495.33,148.58Zm-35.13,0a84.56,84.56,0,0,0-11.51-35.37,90.37,90.37,0,0,0-23.87-26.16,109.07,109.07,0,0,0-29.63-15.5,113,113,0,0,0-31.9-6.11A93.45,93.45,0,0,0,330.74,70a95.14,95.14,0,0,0-29.88,16.18,96.41,96.41,0,0,0-23.17,27,94.6,94.6,0,0,0-12.05,35.45,97.91,97.91,0,0,0,2.84,39.27,96,96,0,0,0,7.64,19,97.8,97.8,0,0,0,11.64,17.3,100.75,100.75,0,0,0,33.5,25.95,103.23,103.23,0,0,0,42,10.05,92.45,92.45,0,0,0,75.59-36A103.06,103.06,0,0,0,457,187.38,110.29,110.29,0,0,0,460.2,148.58Z" transform="translate(-25.77 154.77)"/></g><circle class="cls-3" cx="446.89" cy="251.88" r="45.79" transform="translate(-72.99 544.54) rotate(-45)"/><path class="cls-4" d="M400.59,251.88A51.78,51.78,0,0,1,428,206.32a50.89,50.89,0,0,1,18.88-5.78,51.81,51.81,0,0,1,20.42,2,51.19,51.19,0,0,1,31.35,27.85,52.13,52.13,0,0,1,0,42.91A51,51,0,0,1,428,297.44a51.74,51.74,0,0,1-27.42-45.56Zm1,0a41.46,41.46,0,0,0,3.77,17.2,40.43,40.43,0,0,0,10.48,13.85,39.74,39.74,0,0,0,14.87,8,40.69,40.69,0,0,0,16.18,1.2,39.63,39.63,0,0,0,14.62-4.94,40.69,40.69,0,0,0,20.57-35.31,40.69,40.69,0,0,0-20.57-35.3,39.45,39.45,0,0,0-14.62-4.94,40.68,40.68,0,0,0-16.18,1.19,40,40,0,0,0-14.87,8,40.52,40.52,0,0,0-10.48,13.85A41.53,41.53,0,0,0,401.59,251.88Z" transform="translate(-25.77 154.77)"/><circle class="cls-3" cx="267.1" cy="250.88" r="45.79" transform="translate(-124.94 417.12) rotate(-45)"/><path class="cls-4" d="M313.4,250.88A51.69,51.69,0,0,1,286,296.44a51.09,51.09,0,0,1-18.88,5.79,51.65,51.65,0,0,1-20.42-2.05,51.18,51.18,0,0,1-31.35-27.85,52.1,52.1,0,0,1,0-42.9A51.4,51.4,0,0,1,228.21,212a50.81,50.81,0,0,1,18.47-10.41,51.64,51.64,0,0,1,20.42-2A50.89,50.89,0,0,1,286,205.32a51.73,51.73,0,0,1,27.42,45.56Zm-1,0a41.53,41.53,0,0,0-3.77-17.2,40.4,40.4,0,0,0-10.48-13.85,39.89,39.89,0,0,0-14.87-8,40.68,40.68,0,0,0-16.18-1.19,39.68,39.68,0,0,0-14.62,4.93A41.1,41.1,0,0,0,241.24,225a40.61,40.61,0,0,0,11.24,61.17,39.69,39.69,0,0,0,14.62,4.94,40.69,40.69,0,0,0,16.18-1.2,39.89,39.89,0,0,0,14.87-8,40.3,40.3,0,0,0,10.48-13.85A41.49,41.49,0,0,0,312.4,250.88Z" transform="translate(-25.77 154.77)"/><circle class="cls-3" cx="329.01" cy="220.49" r="183.16"/><path class="cls-5" d="M479.41,376.51a68.38,68.38,0,0,0-2.85-16.12c-8.18-38-30.18-113.51-30.18-113.51h-.09a45.79,45.79,0,0,0-90.77-5.33l-.41,0h-.64a45.79,45.79,0,0,0-91.27,5.35h0s-22,75.54-30.19,113.55a68.92,68.92,0,0,0-2.84,16,20.83,20.83,0,0,0-.12,3.88c0,50.58,55.85,91.59,124.74,91.59s124.74-41,124.74-91.59v0A19.64,19.64,0,0,0,479.41,376.51Z" transform="translate(-25.77 154.77)"/><path class="cls-4" d="M446.77,380.64a37.86,37.86,0,0,0-2.09-10.08c-9.11,25.79-45.89,45.09-89.89,45.09S274,396.35,264.9,370.56a37.5,37.5,0,0,0-2.09,10,10.58,10.58,0,0,0-.08,2.44c0,31.78,41.21,57.55,92.06,57.55s92.06-25.77,92.06-57.55v0A10.46,10.46,0,0,0,446.77,380.64Z" transform="translate(-25.77 154.77)"/><circle class="cls-3" cx="230" cy="-54.69" r="45.79" transform="translate(-6.54 207.16) rotate(-13.56)"/><path class="cls-4" d="M262.74-22A51.73,51.73,0,0,1,230-7a52.28,52.28,0,0,1-18.87-2.11,51,51,0,0,1-17.43-9.26,51.59,51.59,0,0,1-13-15.89A51,51,0,0,1,175-54.69a51.42,51.42,0,0,1,3.23-21.45,52.38,52.38,0,0,1,11.91-18.43,52.49,52.49,0,0,1,18.43-11.9A51.24,51.24,0,0,1,230-109.7a50.84,50.84,0,0,1,20.42,5.7,51.85,51.85,0,0,1,15.89,13,51,51,0,0,1,9.25,17.43,52.1,52.1,0,0,1,2.12,18.88A51.73,51.73,0,0,1,262.74-22Zm-.71-.71a41.56,41.56,0,0,0,9.5-14.82,40.41,40.41,0,0,0,2.38-17.2,39.71,39.71,0,0,0-4.86-16.18,40.61,40.61,0,0,0-10.59-12.28A39.54,39.54,0,0,0,244.63-90,41,41,0,0,0,230-91.27a40.71,40.71,0,0,0-24.89,11.69,40.74,40.74,0,0,0-11.69,24.89,40.93,40.93,0,0,0,1.28,14.62,39.6,39.6,0,0,0,6.84,13.83,40.8,40.8,0,0,0,12.29,10.6A40,40,0,0,0,230-10.78a40.39,40.39,0,0,0,17.2-2.39A41.33,41.33,0,0,0,262-22.67Z" transform="translate(-25.77 154.77)"/><circle class="cls-3" cx="453.8" cy="100.07" r="45.79"/><path class="cls-4" d="M446.84-22A51.73,51.73,0,0,1,431.9-54.69,52.31,52.31,0,0,1,434-73.57,51,51,0,0,1,443.27-91a51.74,51.74,0,0,1,15.89-13,50.79,50.79,0,0,1,20.42-5.7A51.24,51.24,0,0,1,501-106.47a52.49,52.49,0,0,1,18.43,11.9,52.66,52.66,0,0,1,11.91,18.43,51.41,51.41,0,0,1,3.22,21.45,50.79,50.79,0,0,1-5.7,20.41,51.59,51.59,0,0,1-13,15.89,51,51,0,0,1-17.43,9.26A52.28,52.28,0,0,1,479.58-7,51.73,51.73,0,0,1,446.84-22Zm.71-.71a41.29,41.29,0,0,0,14.82,9.5,40.44,40.44,0,0,0,17.21,2.39,40,40,0,0,0,16.17-4.86A40.64,40.64,0,0,0,508-26.24a39.46,39.46,0,0,0,6.85-13.83,40.93,40.93,0,0,0,1.27-14.62,40.68,40.68,0,0,0-11.69-24.89,40.68,40.68,0,0,0-24.88-11.69A41,41,0,0,0,465-90a39.46,39.46,0,0,0-13.83,6.85,40.48,40.48,0,0,0-10.59,12.28,39.87,39.87,0,0,0-4.87,16.18,40.42,40.42,0,0,0,2.39,17.2A41.29,41.29,0,0,0,447.55-22.67Z" transform="translate(-25.77 154.77)"/><circle class="cls-3" cx="354.79" cy="-8.91" r="114.48" transform="translate(84.44 403.03) rotate(-45)"/><path class="cls-4" d="M486.83-8.91a119.78,119.78,0,0,1-14.19,48.82A124.65,124.65,0,0,1,441.1,77.4,141.6,141.6,0,0,1,400,100.19a144.51,144.51,0,0,1-45.19,8.32,127.1,127.1,0,0,1-45.6-7.35,129.79,129.79,0,0,1-40.76-23.71,132.08,132.08,0,0,1-16.84-17.4,132.54,132.54,0,0,1-13.54-20.61,132.18,132.18,0,0,1-9.58-23.24,131.21,131.21,0,0,1-5-25.11,133,133,0,0,1,5.35-52.18,133.62,133.62,0,0,1,10.71-24.84,135.93,135.93,0,0,1,15.77-22.45,134.87,134.87,0,0,1,44.39-33.47,137,137,0,0,1,55.08-12.88,127.15,127.15,0,0,1,55.73,11.3,126.91,126.91,0,0,1,44.63,34.15,138.38,138.38,0,0,1,15.42,23,138.8,138.8,0,0,1,10.37,25.13A145.62,145.62,0,0,1,486.83-8.91Zm-35.13,0a84.52,84.52,0,0,0-11.51-35.37,90.51,90.51,0,0,0-23.87-26.16,109.27,109.27,0,0,0-29.64-15.5A112.53,112.53,0,0,0,354.79-92a93.42,93.42,0,0,0-32.55,4.53,95.14,95.14,0,0,0-29.88,16.18,94.14,94.14,0,0,0-12.71,12.25,94.84,94.84,0,0,0-10.47,14.73A94.78,94.78,0,0,0,257.13-8.91,97.85,97.85,0,0,0,260,30.35a94.61,94.61,0,0,0,7.64,19,98.66,98.66,0,0,0,11.63,17.3,100.69,100.69,0,0,0,33.51,25.95,103.19,103.19,0,0,0,42,10.05,93.19,93.19,0,0,0,42.43-9.09,93.11,93.11,0,0,0,33.15-26.86,104.18,104.18,0,0,0,11-17.73,105.36,105.36,0,0,0,7.09-19A110.54,110.54,0,0,0,451.7-8.91Z" transform="translate(-25.77 154.77)"/><circle class="cls-3" cx="537.95" cy="65.72" r="114.48" transform="translate(85.32 554.4) rotate(-45)"/><path class="cls-4" d="M538,197.76a119.78,119.78,0,0,1-48.82-14.19A124.39,124.39,0,0,1,451.64,152a141.74,141.74,0,0,1-22.8-41.12,144.73,144.73,0,0,1-8.31-45.19,127,127,0,0,1,7.35-45.59,129.72,129.72,0,0,1,23.71-40.77A131.47,131.47,0,0,1,469-37.48,130.81,130.81,0,0,1,512.84-60.6a131.21,131.21,0,0,1,25.11-5,130.9,130.9,0,0,1,77,16.07,135.87,135.87,0,0,1,22.45,15.76,134.87,134.87,0,0,1,33.47,44.39,137,137,0,0,1,12.87,55.08,125.83,125.83,0,0,1-45.44,100.37,137.82,137.82,0,0,1-48.11,25.78A145.4,145.4,0,0,1,538,197.76Zm0-35.13a84.47,84.47,0,0,0,35.36-11.51,90.42,90.42,0,0,0,26.17-23.87A109.13,109.13,0,0,0,615,97.61a112.88,112.88,0,0,0,6.11-31.89,93.45,93.45,0,0,0-4.53-32.55A95.14,95.14,0,0,0,600.38,3.29,96.23,96.23,0,0,0,538-31.94a97.91,97.91,0,0,0-39.27,2.85,94.76,94.76,0,0,0-19,7.64,98.29,98.29,0,0,0-17.3,11.63,100.79,100.79,0,0,0-25.95,33.51,103.19,103.19,0,0,0-10.05,42,92.42,92.42,0,0,0,35.95,75.58,103.48,103.48,0,0,0,17.72,11,105,105,0,0,0,19.06,7.09A110.52,110.52,0,0,0,538,162.63Z" transform="translate(-25.77 154.77)"/><circle class="cls-3" cx="171.63" cy="65.72" r="114.48" transform="translate(-21.98 295.37) rotate(-45)"/><path class="cls-4" d="M171.63-66.32a119.82,119.82,0,0,1,48.82,14.19,124.51,124.51,0,0,1,37.49,31.54,141.6,141.6,0,0,1,22.79,41.12,144.46,144.46,0,0,1,8.32,45.19,127,127,0,0,1-7.35,45.59A129.72,129.72,0,0,1,258,152.08,130.49,130.49,0,0,1,171.63,197a130.9,130.9,0,0,1-77-16.07,135.87,135.87,0,0,1-22.45-15.76A134.87,134.87,0,0,1,38.69,120.8,137.05,137.05,0,0,1,25.81,65.72,125.84,125.84,0,0,1,71.26-34.64a137.62,137.62,0,0,1,48.11-25.79A145.4,145.4,0,0,1,171.63-66.32Zm0,35.13a84.52,84.52,0,0,0-35.37,11.51A90.51,90.51,0,0,0,110.1,4.19,109.59,109.59,0,0,0,94.59,33.83a112.87,112.87,0,0,0-6.1,31.89A93.45,93.45,0,0,0,93,98.27a94.94,94.94,0,0,0,16.18,29.88,96.23,96.23,0,0,0,62.43,35.23,97.85,97.85,0,0,0,39.26-2.85,94.85,94.85,0,0,0,19-7.64,98.66,98.66,0,0,0,17.3-11.63,100.79,100.79,0,0,0,26-33.51,103.19,103.19,0,0,0,10.05-42,92.42,92.42,0,0,0-36-75.58,103.56,103.56,0,0,0-17.73-11,104.62,104.62,0,0,0-19-7.09A110.54,110.54,0,0,0,171.63-31.19Z" transform="translate(-25.77 154.77)"/><circle class="cls-3" cx="230" cy="180.2" r="68.69" transform="translate(-85.83 370.18) rotate(-45)"/><path class="cls-4" d="M278.92,131.27a75.24,75.24,0,0,1,15.4,22.28,76.3,76.3,0,0,1,3,54.55,74.69,74.69,0,0,1-14.05,25.4,75,75,0,0,1-84.37,21.69A76.41,76.41,0,0,1,155,211.25a74.88,74.88,0,0,1,21.69-84.36,74.69,74.69,0,0,1,25.4-14,75.72,75.72,0,0,1,76.82,18.43Zm-.7.71a63.24,63.24,0,0,0-22.28-14.4,61.49,61.49,0,0,0-69.77,18.78A61.19,61.19,0,0,0,175,157.42a62.36,62.36,0,0,0,77.76,77.75,61,61,0,0,0,21-11.14,61.6,61.6,0,0,0,18.78-69.77A63.22,63.22,0,0,0,278.22,132Z" transform="translate(-25.77 154.77)"/><circle class="cls-3" cx="479.58" cy="180.2" r="68.69" transform="translate(-12.73 546.66) rotate(-45)"/><path class="cls-4" d="M430.65,131.27a75.26,75.26,0,0,1,22.28-15.39,76.28,76.28,0,0,1,54.54-3,74.73,74.73,0,0,1,25.41,14,75,75,0,0,1,21.69,84.36,76.46,76.46,0,0,1-43.94,43.94,74.86,74.86,0,0,1-84.36-21.69,74.52,74.52,0,0,1-14-25.4,75.73,75.73,0,0,1,18.43-76.83Zm.71.71A63.24,63.24,0,0,0,417,154.26,61.49,61.49,0,0,0,435.74,224a61.16,61.16,0,0,0,21.06,11.14A62.35,62.35,0,0,0,519,219.65a61.72,61.72,0,0,0,12.49-17.93,62.81,62.81,0,0,0,3-44.3,61.16,61.16,0,0,0-11.14-21.06,62.55,62.55,0,0,0-19.16-15.74,61.8,61.8,0,0,0-50.61-3A63.24,63.24,0,0,0,431.36,132Z" transform="translate(-25.77 154.77)"/><circle class="cls-3" cx="354.79" cy="134.41" r="114.48" transform="translate(-16.9 445.01) rotate(-45)"/><path class="cls-4" d="M486.83,134.41a119.82,119.82,0,0,1-14.19,48.82,124.65,124.65,0,0,1-31.54,37.49A141.84,141.84,0,0,1,400,243.51a144.8,144.8,0,0,1-45.19,8.32,127.1,127.1,0,0,1-45.6-7.35,129.82,129.82,0,0,1-40.76-23.72,131.38,131.38,0,0,1-16.84-17.39,131.06,131.06,0,0,1-23.12-43.85,131.21,131.21,0,0,1-5-25.11,131.12,131.12,0,0,1,16.06-77,136.27,136.27,0,0,1,15.77-22.44A134.87,134.87,0,0,1,299.71,1.47a137,137,0,0,1,55.08-12.88A125.84,125.84,0,0,1,455.15,34a137.7,137.7,0,0,1,25.79,48.1A145.67,145.67,0,0,1,486.83,134.41Zm-35.13,0A84.52,84.52,0,0,0,440.19,99a90.38,90.38,0,0,0-23.87-26.16,109.31,109.31,0,0,0-29.64-15.51,112.87,112.87,0,0,0-31.89-6.1,93.64,93.64,0,0,0-32.55,4.52A95.17,95.17,0,0,0,292.36,72a96.12,96.12,0,0,0-35.23,62.43A97.85,97.85,0,0,0,260,173.67a94.85,94.85,0,0,0,7.64,19,98.66,98.66,0,0,0,11.63,17.3,100.66,100.66,0,0,0,33.51,25.94,103.2,103.2,0,0,0,42,10.06A92.42,92.42,0,0,0,430.37,210a104.18,104.18,0,0,0,11-17.73,105.36,105.36,0,0,0,7.09-19A110.54,110.54,0,0,0,451.7,134.41Z" transform="translate(-25.77 154.77)"/></svg>